Simulation
nRows=46
nColumns=15
endheader
time  TH_x TH_y TH_z SC_y  SC_z  SC_x  AC_y  AC_z  AC_x  GH_y  GH_z  GH_yy  EL_x  PS_y
0.0  0.000000  0.000000  0.000000  -25.950341059031434  4.448279526019183  -10.763302480488685  56.6891503498829  21.7481037687061  9.711905783195323  58.691996045545245  11.250387346142121  0.30532672485061885  18.077035169117813  120.000000
0.028000000000000008  0.000000  0.000000  0.000000  -25.413477735146934  4.962133201540808  -10.090954823777826  55.82881434486354  20.97367928975106  9.747914833437669  53.10918017509213  11.196072570314733  5.940071981869826  17.917048820659232  120.000000
0.056000000000000015  0.000000  0.000000  0.000000  -24.914378960934293  5.334376542550899  -9.457247218860186  55.03318315318051  20.11575820656877  9.78238555791731  48.11638943482756  11.237902927406527  11.031359946882326  17.751265285516702  120.000000
0.08400000000000002  0.000000  0.000000  0.000000  -24.427200984708637  5.580354099562875  -8.830593839252463  54.340743572296304  19.208810514465274  9.77662791719875  43.794062681545924  11.34685220725765  15.488293011594122  17.560372676720586  120.000000
0.11200000000000003  0.000000  0.000000  0.000000  -23.944453954853195  5.716004340313356  -8.193524478771474  53.76199729755645  18.282118599246985  9.71136050794311  40.17511669772208  11.497316346554504  19.25448335919322  17.327738743412176  120.000000
0.14000000000000004  0.000000  0.000000  0.000000  -23.461589816964647  5.758873803483264  -7.536206272956294  53.29179194080134  17.365286664926426  9.590269989402115  37.28796438884198  11.673560198224513  22.276253174516818  17.047610388359065  120.000000
0.16800000000000004  0.000000  0.000000  0.000000  -22.978615164691504  5.72581817658582  -6.857195633097899  52.910113618967976  16.48498154845533  9.432227407070291  35.150143076934654  11.868138713872796  24.5129592355394  16.724258048470084  120.000000
0.19600000000000006  0.000000  0.000000  0.000000  -22.506133219313334  5.629857921865773  -6.162019778797548  52.58638600394822  15.660983561679515  9.261513824134443  33.76925873304595  12.084000744829906  25.93307098451437  16.365194380964393  120.000000
0.22400000000000006  0.000000  0.000000  0.000000  -22.066689622686997  5.4790897199017765  -5.46289168442891  52.29410181489133  14.908147006917243  9.094978217060236  33.14482826204033  12.338343940425757  26.508326099401714  15.97605784616068  120.000000
0.25200000000000006  0.000000  0.000000  0.000000  -21.684020602958796  5.286433159500036  -4.778850244468937  52.03083641847234  14.241253476607653  8.931586801052251  33.2803578340164  12.66554126202988  26.20460207067756  15.5604549457366  120.000000
0.2800000000000001  0.000000  0.000000  0.000000  -21.37032895056508  5.079759572617233  -4.134414138475674  51.82648327105161  13.680459631541426  8.748182407987594  34.15505562456947  13.116057169510164  25.01889709333623  15.124533191605337  120.000000
0.3080000000000001  0.000000  0.000000  0.000000  -21.13119815757823  4.90186097788991  -3.5549430841023497  51.71838020328181  13.246393871456243  8.510276131965126  35.63795238545552  13.743281908714795  23.069659147778488  14.675105924470438  120.000000
0.3360000000000001  0.000000  0.000000  0.000000  -20.979302835844997  4.793573942418564  -3.0540405530074057  51.704410401129664  12.950753180220843  8.196376164368427  37.401361828211826  14.57388786836715  20.684119915070422  14.216435375274688  120.000000
0.3640000000000001  0.000000  0.000000  0.000000  -20.922948615132995  4.758846816952467  -2.622595661408676  51.738638505454205  12.78604378784287  7.821595040624294  39.07267624120118  15.598348248484065  18.24552385131016  13.754020852709848  120.000000
0.3920000000000001  0.000000  0.000000  0.000000  -20.9409922081331  4.754421168988903  -2.2350970806988726  51.77481105287585  12.725793038637255  7.432278246985123  40.46590205905977  16.79250265423209  15.957895305825975  13.299094042066912  120.000000
0.4200000000000001  0.000000  0.000000  0.000000  -20.9900299427632  4.738244210158881  -1.8654281095480063  51.79477372666804  12.741284813681744  7.070254937969825  41.56546455698513  18.135560440914446  13.86178003960063  12.870651537623399  120.000000
0.4480000000000001  0.000000  0.000000  0.000000  -21.028301251045004  4.6952858438793434  -1.4938434608551936  51.796976144920876  12.809686657090186  6.755219326292923  42.41128040277391  19.609435608351898  11.942831377421887  12.48639034155466  120.000000
0.47600000000000015  0.000000  0.000000  0.000000  -21.025522283384593  4.6310963485103995  -1.1081347991250219  51.78712662521908  12.914190211776337  6.487429428518206  43.05810643508672  21.198714139155918  10.168895336369122  12.157011770384226  120.000000
0.5040000000000001  0.000000  0.000000  0.000000  -20.964801620369315  4.564839361342038  -0.7038379426989658  51.773021867437365  13.04316800170571  6.254020646436806  43.5573586485839  22.889737093729078  8.506202704401808  11.885845063278849  120.000000
0.5320000000000001  0.000000  0.000000  0.000000  -20.842620801955494  4.518424082681061  -0.28148868436276714  51.75805403509484  13.188073674084956  6.038734489621359  43.94592083208908  24.667756989205174  6.930509994106742  11.668446977192044  120.000000
0.5600000000000002  0.000000  0.000000  0.000000  -20.666216759010275  4.508308688853895  0.15747885505971027  51.73769279690499  13.341188774440282  5.831014126962094  44.24491157250023  26.515143851960953  5.4290889488459575  11.495621510896159  120.000000
0.5880000000000002  0.000000  0.000000  0.000000  -20.448877913749016  4.539871417113378  0.612883021128206  51.702683303256784  13.494739808303217  5.628673039467132  44.46490600055369  28.41159607844189  3.9979081114533814  11.355315522286864  120.000000
0.6160000000000002  0.000000  0.000000  0.000000  -20.20559920648106  4.609113744449185  1.0856603097222957  51.647242587396626  13.64152749157012  5.434255228433575  44.61299311134382  30.336835483962947  2.636079122084126  11.235929221648453  120.000000
0.6440000000000001  0.000000  0.000000  0.000000  -19.950674638300292  4.708537481943996  1.5778551989391563  51.5740694876592  13.776452517536287  5.251542996611934  44.694948151797966  32.27224625439695  1.345731542741699  11.128005237595104  120.000000
0.6720000000000002  0.000000  0.000000  0.000000  -19.698521589161142  4.830430556142661  2.0923465110948216  51.4933786437641  13.897151840570565  5.083285297216528  44.71441436201208  34.20204980781576  0.13214549364054579  11.025108262126498  120.000000
0.7000000000000002  0.000000  0.000000  0.000000  -19.46402872927321  4.967876666748197  2.6327571826021128  51.41956665105193  14.003383121844513  4.931283299435117  44.67253320958183  36.11343179189158  -0.9965761609758339  10.922937191776356  120.000000
0.7280000000000002  0.000000  0.000000  0.000000  -19.261771451320865  5.114776769940839  3.2028284025652316  51.36762820434386  14.095609598784257  4.796933927325322  44.57004267475046  37.99695775976033  -2.0334409003870695  10.81949177877105  120.000000
0.7560000000000002  0.000000  0.000000  0.000000  -19.10416954790767  5.265910634446345  3.8056238594221634  51.350953023398894  14.17375023683232  4.682089896000367  44.40890494634761  39.846434382378085  -2.9747541343324775  10.714746907813534  120.000000
0.7840000000000003  0.000000  0.000000  0.000000  -19.00062999790945  5.417258971992037  4.44217951397013  51.379375475201655  14.23649463867167  4.588423569677  44.192681188674136  41.657996596296464  -3.8223859009022285  10.610563799227906  120.000000
0.8120000000000002  0.000000  0.000000  0.000000  -18.95704715995299  5.566073290988526  5.111029732526838  51.458629693065916  14.281315899906613  4.517230385801982  43.92560687098877  43.428775005711316  -4.582992882597413  10.509794259687634  120.000000
0.8400000000000002  0.000000  0.000000  0.000000  -18.975574598797888  5.7106519560248366  5.808695379249548  51.59060384987396  14.305067514317166  4.469749090641981  43.61243948214887  45.15561170968785  -5.267658884739864  10.416065208084456  120.000000
0.8680000000000002  0.000000  0.000000  0.000000  -19.055165777277036  5.8506743423027805  6.530603625901662  51.774381345846  14.30524560608403  4.446909975125561  43.25704447166963  46.83378095513168  -5.889598464579233  10.33288912426763  120.000000
0.8960000000000002  0.000000  0.000000  0.000000  -19.19260434936283  5.987533229343605  7.271915617150139  52.00723730791039  14.281059266369487  4.448863548747286  42.861601304592746  48.45568526944948  -6.46220599480404  10.263373155038721  120.000000
0.9240000000000003  0.000000  0.000000  0.000000  -19.38274314106653  6.122917619536698  8.028775542811706  52.285294023230286  14.233685514518088  4.476216651062439  42.4269070127237  50.01010274327616  -6.997884822459663  10.209950236005858  120.000000
0.9520000000000003  0.000000  0.000000  0.000000  -19.618856826344327  6.258167629058067  8.79864021605872  52.6040647349954  14.16601962424189  4.530269632861966  41.95326112595508  51.48209094669391  -7.507492445466841  10.174524178645441  120.000000
0.9800000000000003  0.000000  0.000000  0.000000  -19.89348848560377  6.394460589352198  9.58034556857547  52.95895838216171  14.08257000169375  4.612767289939025  41.44091718586728  52.85359131369199  -8.000067154551854  10.158163285142084  120.000000
1.0080000000000002  0.000000  0.000000  0.000000  -20.19916036351653  6.532555266838588  10.373756097836472  53.34491721124929  13.988886669588503  4.725628020604402  40.89063590759844  54.105100845792286  -8.482517638937326  10.161001588332669  120.000000
1.0360000000000003  0.000000  0.000000  0.000000  -20.52915857010634  6.672807361511168  11.179631293671253  53.7562692446168  13.891111799132661  4.870667217094462  40.304238545565674  55.217917411066935  -8.959395208018087  10.181678047943373  120.000000
1.0640000000000003  0.000000  0.000000  0.000000  -20.87782822258446  6.814955166642833  11.998727941310163  54.186631228397644  13.795244781617999  5.04882596149918  39.685343995844654  56.17743356871009  -9.432519341497512  10.21714485089231  120.000000
1.0920000000000003  0.000000  0.000000  0.000000  -21.240656136644738  6.957546908841642  12.830985883200173  54.62916564521762  13.706196487757879  5.259790990945491  39.04056305928858  56.97721281056039  -9.900267942458683  10.262569448079649  120.000000
1.1200000000000003  0.000000  0.000000  0.000000  -21.614344672106927  7.0976200239544776  13.674073445833958  55.07680338269559  13.626962371386488  5.501113507502084  38.38008523675278  57.62383739587566  -10.356585478484412  10.31186794390557  120.000000
1.1480000000000004  0.000000  0.000000  0.000000  -21.99789887687358  7.231245037097419  14.521476323249784  55.52276147255732  13.557660853786102  5.766168300220787  37.71838255895133  58.143480482052865  -10.788711585488972  10.35805442970214  120.000000
1.1760000000000004  0.000000  0.000000  0.000000  -22.392496838558298  7.354236790228615  15.361612215253608  55.961295732053294  13.495423358630138  6.043285979532541  37.07221234479786  58.57834885355113  -11.178702855349973  10.394262829481477  120.000000
1.2040000000000004  0.000000  0.000000  0.000000  -22.798889050315978  7.4629405154576105  16.1851919119711  56.38809051187209  13.439262602020639  6.3230728430183625  36.453296424780646  58.95911244810658  -11.514244394952854  10.416277401401354  120.000000
1.2320000000000004  0.000000  0.000000  0.000000  -23.21568008389826  7.5546222654260005  16.988532470415258  56.800090189639846  13.392132466279246  6.602330752882171  35.865618887545175  59.29197568736453  -11.794138677800412  10.42419100858101  120.000000
1.2600000000000002  0.000000  0.000000  0.000000  -23.640578495766963  7.627441452328157  17.76770138017098  57.195435589785255  13.35617275013497  6.878075866670543  35.31125239929578  59.578360817024205  -12.020082520460823  10.420554862520877  120.000000
